<svg width="265px" height="234px" viewBox="0 0 265 234" version="1.1" xmlns="http://www.w3.org/2000/svg" xmlns:xlink="http://www.w3.org/1999/xlink">
    <g id="Page-1" stroke="none" stroke-width="1" fill="none" fill-rule="evenodd">
        <g id="06" transform="translate(-444.000000, -88.000000)">
            <g id="Rocket-2" transform="translate(444.000000, 88.000000)">
                <path class="fire" d="M137.133,96.397 C137.133,96.397 89.162,114.85 86.853,167.382 C84.34,224.515 0.215,232.961 0.215,232.961 C0.215,232.961 88.663,237.141 120.386,188.208 C152.108,139.276 160.043,147.275 173.168,132.433 C173.168,132.433 179.383,81.578 137.133,96.397" id="Fill-36" fill="#FFFDC0"></path>
                <path class="fire" d="M128.422,112.902 C122.959,124.66 120.841,135.341 119.608,145.797 C129.941,144.353 139.724,141.304 150.487,134.967 C143.132,127.612 135.777,120.257 128.422,112.902" id="Fill-37" fill="#FF7B57"></path>
                <polyline id="Fill-38" fill="#856663" points="159.972 50.593 89.687 63.779 52.752 131.149 113.592 109.81 159.972 50.593"></polyline>
                <polyline id="Fill-39" fill="#856663" points="214.906 103.43 201.719 173.714 134.349 210.649 155.688 149.81 214.906 103.43"></polyline>
                <path d="M81.271,121.146 C93.728,99.596 110.597,77.261 131.215,55.988 L159.971,50.593 C158.115,52.345 156.273,54.135 154.441,55.967 C136.945,73.463 123.063,92.127 113.592,109.81 L81.271,121.146" id="Fill-40" fill="#6A524F"></path>
                <path d="M143.824,183.634 L148.016,171.684 L143.825,183.633 C143.824,183.634 143.824,183.634 143.824,183.634" id="Fill-41" fill="#283B47"></path>
                <polyline id="Fill-42" fill="#394A50" points="148.016 171.684 155.16 151.316 148.016 171.684"></polyline>
                <polyline id="Fill-43" fill="#283B47" points="209.288 133.374 214.69 104.584 209.288 133.374"></polyline>
                <path d="M143.825,183.633 L155.16,151.316 C172.831,141.845 191.481,127.971 208.963,110.488 C210.916,108.535 212.827,106.564 214.69,104.584 L209.288,133.374 C187.925,154.132 165.48,171.112 143.824,183.634" id="Fill-44" fill="#6A524F"></path>
                <path d="M135.729,129.2 C142.986,136.458 149.484,143.922 155.119,151.338 C172.803,141.866 191.467,127.984 208.963,110.488 C247.248,72.203 268.236,28.323 263.553,1.375 C236.605,-3.307 192.727,17.682 154.441,55.967 C136.945,73.463 123.063,92.127 113.592,109.81 C121.007,115.445 128.471,121.942 135.729,129.2" id="Fill-45" fill="#DCC0D5"></path>
                <path d="M169.065,95.863 C159.865,86.663 150.48,78.154 141.07,70.369 C129.773,83.482 120.502,96.906 113.592,109.81 C121.007,115.445 128.471,121.942 135.729,129.2 C142.986,136.458 149.484,143.922 155.119,151.338 C168.022,144.427 181.447,135.156 194.56,123.858 C186.774,114.449 178.266,105.064 169.065,95.863" id="Fill-46" fill="#856663"></path>
                <path d="M209.031,55.898 C200.223,47.09 191.208,39.06 182.197,31.863 C178.218,34.838 174.242,37.997 170.291,41.351 C179.766,48.758 189.266,57.139 198.527,66.401 C207.791,75.664 216.17,85.163 223.578,94.638 C226.932,90.687 230.092,86.711 233.065,82.731 C225.869,73.722 217.839,64.706 209.031,55.898" id="Fill-47" fill="#856663"></path>
                <polyline id="Fill-48" fill="#775655" points="117.021 148.238 185.35 75.386 191.116 81.152 117.021 148.238"></polyline>
                <path d="M239.424,45.614 C233.871,51.167 224.867,51.167 219.315,45.614 C213.762,40.061 213.762,31.059 219.315,25.506 C224.867,19.953 233.87,19.953 239.423,25.506 C244.977,31.059 244.977,40.062 239.424,45.614" id="Fill-49" fill="#906F87"></path>
                <path d="M229.369,45.323 C226.87,45.323 224.372,44.37 222.465,42.464 C218.653,38.65 218.653,32.47 222.465,28.656 C224.372,26.75 226.87,25.797 229.369,25.797 C231.868,25.797 234.366,26.75 236.272,28.656 C240.085,32.47 240.085,38.65 236.272,42.464 C234.366,44.37 231.868,45.323 229.369,45.323" id="Fill-50" fill="#816479"></path>
                <path d="M235.136,41.327 C231.951,44.512 226.787,44.512 223.602,41.327 C220.418,38.142 220.418,32.979 223.602,29.793 C226.787,26.608 231.951,26.608 235.136,29.793 C238.32,32.979 238.32,38.142 235.136,41.327" id="Fill-51" fill="#96D2D9"></path>
            </g>
        </g>
    </g>
</svg>