<svg width="289px" height="301px" viewBox="0 0 289 301" version="1.1" xmlns="http://www.w3.org/2000/svg" xmlns:xlink="http://www.w3.org/1999/xlink">
    <g id="Page-1" stroke="none" stroke-width="1" fill="none" fill-rule="evenodd">
        <g id="06" transform="translate(-107.000000, -424.000000)">
            <g id="Rocket-3" transform="translate(107.000000, 424.000000)">
                <path class="fire" d="M31.409,276.72 C27.035,276.72 22.915,276.226 19.187,275.153 C12.966,253.525 27.787,220.324 44.636,199.326 C49.508,194.736 54.375,190.218 59.216,185.789 C61.144,193.699 67.559,201.77 78.316,212.348 C91.218,225.035 100.404,231.537 109.928,231.537 C111.977,231.537 114.042,231.236 116.162,230.63 C115.832,231.177 115.493,231.721 115.147,232.26 C109.454,238.546 103.621,244.865 97.654,251.207 C79.958,265.04 52.67,276.72 31.409,276.72" id="Fill-83" fill="#FFFDC0"></path>
                <path class="fire" d="M106.73,189.698 C91.348,185.274 74.09,189.118 61.972,201.237 C49.853,213.356 46.009,230.614 50.433,245.996 C65.815,250.42 83.072,246.575 95.191,234.457 C107.31,222.338 111.154,205.08 106.73,189.698" id="Fill-84" fill="#FF7B57"></path>
                <path d="M197.643,150.871 L145.462,300.943 C145.462,300.943 136.737,226.696 93.58,225.504 L197.643,150.871" id="Fill-85" fill="#8F1722"></path>
                <path d="M148.492,95.525 L9.545,139.813 C9.545,139.813 73.698,157.693 75.614,200.825 L148.492,95.525" id="Fill-86" fill="#8F1722"></path>
                <path d="M159.01,196.469 C118.254,237.914 108.324,241.857 78.316,212.348 C48.308,182.84 52.085,172.846 92.841,131.4 C127.458,96.197 248.201,5.21 288.307,0.463 C283.721,40.137 193.627,161.266 159.01,196.469" id="Fill-87" fill="#C31B33"></path>
                <path d="M136.863,152.811 C152.779,168.461 164.321,176.819 176.043,177.537 C169.564,185.177 163.762,191.635 159.01,196.469 C118.254,237.914 108.324,241.857 78.316,212.348 C48.308,182.84 52.085,172.846 92.841,131.4 C97.582,126.578 103.947,120.707 111.49,114.157 C112.449,125.828 120.997,137.207 136.863,152.811" id="Fill-88" fill="#E84550"></path>
                <path d="M160.391,114.239 L0.297,225.51 C0.297,225.51 69.359,202.92 78.463,210.639 L160.391,114.239" id="Fill-89" fill="#8F1722"></path>
                <path d="M170.441,75.707 C161.295,85.008 161.42,99.963 170.721,109.11 C180.023,118.257 194.979,118.131 204.125,108.83 C213.272,99.529 213.145,84.574 203.844,75.428 C194.543,66.279 179.588,66.406 170.441,75.707" id="Fill-90" fill="#8F1722"></path>
                <path d="M176.522,81.686 C170.676,87.629 170.756,97.185 176.7,103.03 C182.644,108.875 192.199,108.794 198.045,102.852 C203.889,96.908 203.809,87.351 197.865,81.508 C191.922,75.662 182.365,75.742 176.522,81.686" id="Fill-91" fill="#96D2D9"></path>
                <path d="M185.282,106.314 C182.234,106.314 179.183,105.164 176.837,102.857 C172.093,98.192 172.029,90.565 176.694,85.822 C179.052,83.425 182.166,82.223 185.282,82.223 C188.331,82.223 191.382,83.374 193.728,85.681 C198.472,90.345 198.535,97.972 193.872,102.715 C191.513,105.112 188.399,106.314 185.282,106.314" id="Fill-92" fill="#87BDC3"></path>
            </g>
        </g>
    </g>
</svg>