<svg width="366px" height="375px" viewBox="0 0 366 375" version="1.1" xmlns="http://www.w3.org/2000/svg" xmlns:xlink="http://www.w3.org/1999/xlink">
    <g id="Page-1" stroke="none" stroke-width="1" fill="none" fill-rule="evenodd">
        <g id="06" transform="translate(-24.000000, -56.000000)">
            <path class="fire" d="M153.771,252.204 C111.444,295.45 84.236,341.957 80.604,372.766 C111.327,368.471 157.238,340.271 199.565,297.024 C241.892,253.779 269.099,207.272 272.732,176.464 C242.009,180.758 196.098,208.958 153.771,252.204" id="Fill-55" fill="#FFFDC0"></path>
            <path class="fire" d="M183.308,235.582 C154.916,264.591 136.665,295.788 134.228,316.454 C154.837,313.573 185.634,294.657 214.027,265.647 C242.42,236.638 260.671,205.441 263.108,184.775 C242.499,187.655 211.701,206.572 183.308,235.582" id="Fill-56" fill="#FF7B57"></path>
            <path class="fire-left" d="M57.334,161.501 C38.232,181.018 25.954,202.006 24.314,215.91 C38.18,213.972 58.899,201.245 78.001,181.728 C97.103,162.212 109.382,141.223 111.021,127.319 C97.156,129.257 76.436,141.984 57.334,161.501" id="Fill-57" fill="#FFFDC0"></path>
            <path class="fire-left" d="M70.665,153.999 C57.851,167.091 49.614,181.17 48.515,190.497 C57.815,189.197 71.714,180.66 84.528,167.568 C97.341,154.476 105.578,140.397 106.678,131.07 C97.377,132.37 83.478,140.907 70.665,153.999" id="Fill-58" fill="#FF7B57"></path>
            <path class="fire-right" d="M266.334,376.501 C247.232,396.018 234.954,417.006 233.314,430.91 C247.18,428.972 267.899,416.245 287.001,396.729 C306.103,377.212 318.382,356.223 320.021,342.319 C306.156,344.257 285.437,356.984 266.334,376.501" id="Fill-59" fill="#FFFDC0"></path>
            <path class="fire-right" d="M279.665,368.999 C266.851,382.092 258.614,396.17 257.515,405.496 C266.815,404.197 280.714,395.66 293.528,382.568 C306.341,369.477 314.578,355.397 315.678,346.07 C306.377,347.37 292.478,355.907 279.665,368.999" id="Fill-60" fill="#FF7B57"></path>
            <g id="Group" transform="translate(60.000000, 56.000000)">
                <path d="M192.625,103.08 C179.118,88.129 160.888,75.906 139.285,68.608 C84.132,49.977 26.982,70.203 7.939,113.863 C33.37,101.76 65.798,99.596 97.566,110.327 C119.169,117.625 137.399,129.849 150.905,144.799 L192.625,103.08" id="Fill-61" fill="#4BB4BF"></path>
                <path d="M232.816,143.272 C247.767,156.778 259.99,175.009 267.288,196.611 C285.92,251.765 265.693,308.915 222.033,327.957 C234.137,302.526 236.301,270.098 225.569,238.33 C218.272,216.728 206.048,198.497 191.097,184.991 L232.816,143.272" id="Fill-62" fill="#4BB4BF"></path>
                <path d="M215.939,216.516 C212.885,211.006 209.486,205.819 205.793,200.987 C205.796,200.985 205.797,200.984 205.8,200.982 C209.494,205.811 212.896,210.998 215.949,216.507 C215.946,216.51 215.942,216.513 215.939,216.516" id="Fill-63" fill="#2D4250"></path>
                <path d="M215.949,216.507 C212.896,210.998 209.494,205.811 205.8,200.982 C217.747,191.537 229.586,181.029 241.083,169.532 C243.797,166.818 246.455,164.086 249.058,161.338 C252.329,165.807 255.351,170.565 258.089,175.586 C253.273,180.799 248.309,185.973 243.189,191.093 C234.247,200.035 225.145,208.509 215.949,216.507" id="Fill-64" fill="#43A2AC"></path>
                <path d="M285.911,44.808 C247.984,43.627 193.478,70.918 145.975,118.421 C130.234,134.161 116.728,150.671 105.727,167.092 C109.617,181.022 116.619,193.577 126.881,203.838 C137.141,214.1 149.697,221.102 163.627,224.992 C180.048,213.991 196.557,200.485 212.298,184.744 C259.801,137.241 287.092,82.735 285.911,44.808" id="Fill-65" fill="#4BB4BF"></path>
                <path d="M129.004,125.849 C123.904,122.402 118.463,119.269 112.712,116.502 C112.714,116.5 112.715,116.499 112.716,116.497 C118.467,119.264 123.908,122.398 129.006,125.846 C129.006,125.847 129.005,125.848 129.004,125.849" id="Fill-66" fill="#2D4250"></path>
                <path d="M129.006,125.846 C123.908,122.398 118.467,119.264 112.716,116.497 C121.15,106.714 130.124,97.031 139.626,87.53 C144.163,82.993 148.74,78.577 153.35,74.279 C158.628,76.76 163.649,79.546 168.392,82.6 C165.976,84.903 163.576,87.247 161.187,89.636 C149.392,101.43 138.64,113.583 129.006,125.846" id="Fill-67" fill="#43A2AC"></path>
                <path d="M329.761,0.958 C284.071,-0.465 218.412,32.411 161.187,89.636 C142.225,108.598 125.955,128.486 112.702,148.268 C117.389,165.048 125.823,180.173 138.185,192.534 C150.546,204.896 165.671,213.331 182.451,218.017 C202.232,204.764 222.121,188.494 241.083,169.532 C298.308,112.307 331.184,46.647 329.761,0.958" id="Fill-68" fill="#96D2D9"></path>
                <path d="M329.761,0.958 C284.071,-0.465 218.412,32.411 161.187,89.636 C160.31,90.513 159.443,91.395 158.578,92.276 C156.279,95.494 154.043,98.713 151.888,101.931 C157.055,120.433 166.355,137.107 179.982,150.736 C193.611,164.364 210.286,173.664 228.788,178.832 C232.005,176.676 235.225,174.44 238.442,172.141 C239.324,171.275 240.206,170.409 241.083,169.532 C298.308,112.307 331.184,46.647 329.761,0.958" id="Fill-69" fill="#FFFFF2"></path>
                <path d="M66.174,58.07 C52.348,57.639 32.48,67.587 15.162,84.905 C9.424,90.643 4.501,96.661 0.49,102.646 C1.909,107.725 4.461,112.301 8.202,116.042 C11.942,119.782 16.52,122.335 21.598,123.753 C27.583,119.743 33.601,114.82 39.339,109.082 C56.656,91.765 66.604,71.896 66.174,58.07" id="Fill-70" fill="#4BB4BF"></path>
                <path d="M82.158,42.085 C65.504,41.567 41.568,53.552 20.708,74.412 C13.796,81.324 7.864,88.573 3.033,95.784 C4.741,101.902 7.816,107.415 12.322,111.921 C16.829,116.428 22.342,119.502 28.46,121.211 C35.671,116.379 42.92,110.448 49.832,103.536 C70.692,82.676 82.677,58.74 82.158,42.085" id="Fill-71" fill="#96D2D9"></path>
                <path d="M82.158,42.085 C65.504,41.567 41.568,53.552 20.708,74.412 C20.388,74.731 20.072,75.052 19.757,75.374 C18.919,76.546 18.104,77.72 17.318,78.893 C19.201,85.637 22.592,91.717 27.56,96.685 C32.527,101.652 38.606,105.042 45.351,106.926 C46.523,106.14 47.697,105.325 48.87,104.487 C49.191,104.172 49.512,103.855 49.832,103.536 C70.692,82.676 82.677,58.74 82.158,42.085" id="Fill-72" fill="#FFFFF2"></path>
                <path d="M278.306,270.202 C264.48,269.771 244.611,279.719 227.294,297.037 C221.556,302.775 216.633,308.793 212.622,314.778 C214.041,319.856 216.594,324.433 220.334,328.174 C224.075,331.914 228.651,334.467 233.729,335.886 C239.715,331.875 245.732,326.952 251.471,321.214 C268.788,303.896 278.736,284.027 278.306,270.202" id="Fill-73" fill="#4BB4BF"></path>
                <path d="M294.29,254.217 C277.636,253.699 253.7,265.684 232.84,286.544 C225.928,293.456 219.996,300.705 215.165,307.916 C216.873,314.034 219.948,319.547 224.455,324.053 C228.961,328.56 234.474,331.635 240.592,333.343 C247.803,328.511 255.052,322.58 261.964,315.668 C282.824,294.808 294.809,270.873 294.29,254.217" id="Fill-74" fill="#96D2D9"></path>
                <path d="M294.29,254.217 C277.636,253.699 253.7,265.684 232.84,286.544 C232.521,286.863 232.204,287.185 231.889,287.506 C231.051,288.679 230.236,289.853 229.45,291.024 C231.333,297.77 234.724,303.849 239.691,308.816 C244.659,313.784 250.738,317.175 257.482,319.058 C258.655,318.271 259.829,317.457 261.002,316.619 C261.323,316.304 261.645,315.987 261.964,315.668 C282.824,294.808 294.809,270.873 294.29,254.217" id="Fill-75" fill="#FFFFF2"></path>
                <path d="M273.228,112.759 C257.967,128.021 233.222,128.02 217.96,112.759 C202.698,97.498 202.697,72.753 217.96,57.49 C233.222,42.229 257.967,42.23 273.228,57.491 C288.489,72.753 288.49,97.497 273.228,112.759" id="Fill-76" fill="#96D2D9"></path>
                <path d="M266.807,106.337 C255.091,118.053 236.097,118.052 224.382,106.337 C212.667,94.622 212.666,75.627 224.382,63.913 C236.097,52.197 255.091,52.198 266.807,63.913 C278.522,75.627 278.522,94.622 266.807,106.337" id="Fill-77" fill="#4BB4BF"></path>
                <path d="M247.594,78.577 C245.431,78.577 243.268,77.751 241.618,76.101 C238.317,72.801 238.317,67.449 241.618,64.148 C243.268,62.498 245.431,61.673 247.594,61.673 C249.757,61.673 251.92,62.498 253.571,64.148 C256.872,67.449 256.872,72.801 253.571,76.101 C251.92,77.751 249.757,78.577 247.594,78.577" id="Fill-78" fill="#5DBCC6"></path>
            </g>
        </g>
    </g>
</svg>